<?xml version="1.0" encoding="utf-8"?>
<!-- Generator: Adobe Illustrator 18.1.1, SVG Export Plug-In . SVG Version: 6.00 Build 0)  -->
<svg version="1.1" id="Layer_1" xmlns="http://www.w3.org/2000/svg" xmlns:xlink="http://www.w3.org/1999/xlink" x="0px" y="0px"
	 viewBox="0 0 64 64" enable-background="new 0 0 64 64" xml:space="preserve">
<g>
	<g>
		<g>
			<path d="M48.4,38.7l-3.5,3.5c-0.3,0.3-0.6,0.4-0.9,0.4s-0.7-0.1-0.9-0.4L32,31L21,42.2c-0.3,0.3-0.6,0.4-0.9,0.4
				c-0.4,0-0.7-0.1-0.9-0.4l-3.5-3.5c-0.3-0.3-0.4-0.6-0.4-1c0-0.4,0.1-0.7,0.4-1l15.4-15.6c0.3-0.3,0.6-0.4,0.9-0.4
				c0.4,0,0.7,0.1,0.9,0.4l15.4,15.6c0.3,0.3,0.4,0.6,0.4,1C48.8,38.1,48.6,38.4,48.4,38.7z"/>
		</g>
	</g>
	<path d="M32,64C14.6,64,0.4,49.6,0.4,32S14.6,0,32,0s31.6,14.4,31.6,32S49.4,64,32,64z M32,6C17.9,6,6.4,17.7,6.4,32S17.9,58,32,58
		s25.6-11.7,25.6-26S46.1,6,32,6z"/>
</g>
</svg>
