<?xml version="1.0" encoding="utf-8"?>
<!-- Generator: Adobe Illustrator 18.1.1, SVG Export Plug-In . SVG Version: 6.00 Build 0)  -->
<svg version="1.1" id="Layer_1" xmlns="http://www.w3.org/2000/svg" xmlns:xlink="http://www.w3.org/1999/xlink" x="0px" y="0px"
	 viewBox="0 0 64 64" enable-background="new 0 0 64 64" xml:space="preserve">
<g>
	<path d="M0.9,17.7C3,17,5.3,17.3,7.5,17.2c9.8,0,19.6,0,29.4,0c0,1.6,0,3.3,0,4.9c-10.7,0-21.3,0-32,0c0,6.6,0,13.1,0,19.7
		c10.7,0,21.3,0,32,0c0,1.6,0,3.3,0,4.9c-10.1,0-20.3,0-30.4,0c-2,0-4.2,0.4-6-0.8c-0.2-0.6-0.4-1.1-0.5-1.7V19.4
		C0.3,18.8,0.6,18.3,0.9,17.7z"/>
	<path d="M63.5,18c-0.8-0.3-1.6-0.8-2.5-0.8c-3.9,0-7.8,0-11.7,0c0-1.9-0.1-3.8,0-5.8c-0.1-1.6,1.5-2.6,2.8-3.2
		c2.2-1,4.6-0.5,6.9-1.3c2.1-0.7,3.1-3.6,1.7-5.3c-0.5-1-1.7-1.3-2.7-1.7h-0.7c-4.2,0.1-8.6,1-11.9,3.7C42.3,1.1,38,0.2,33.9,0h-0.2
		c-1.2,0.2-2.6,0.4-3.4,1.5c-1.7,2-0.4,5.3,2.1,5.8c2.8,0.4,6.1,0.2,8.3,2.3c0.9,0.7,0.9,1.9,0.9,2.9c0,13.3,0,26.7,0,40
		c0,2.3-2.6,3.2-4.5,3.6c-2.4,0.6-5.8-0.2-7.2,2.4c-1.3,2.2,0.4,5.1,2.9,5.4h0.5c4.2-0.1,8.6-1,12-3.6c3.3,2.6,7.5,3.5,11.6,3.6h0.4
		c1-0.2,2.2-0.3,2.9-1.1c1.5-1.4,1.4-4.1-0.3-5.4c-1.7-1.3-4-0.8-5.9-1.3c-1.8-0.4-3.9-1-4.6-2.8c-0.3-2.2-0.1-4.5-0.1-6.7
		c3.6,0,7.1,0,10.7,0c1.1,0,2.1-0.2,3.1-0.5c0.3-0.5,0.6-1.1,0.9-1.6V19.7C63.8,19.2,63.7,18.6,63.5,18z M49.4,41.8
		c0-6.6,0-13.1,0-19.7c3.2,0,6.5,0,9.7,0c0,6.6,0,13.1,0,19.7C55.8,41.8,52.6,41.8,49.4,41.8z"/>
	<path d="M9.8,27.1c7.4,0,14.8,0,22.2,0c0,3.3,0,6.6,0,9.8c-7.4,0-14.8,0-22.2,0C9.8,33.6,9.8,30.4,9.8,27.1z"/>
</g>
</svg>
