<?xml version="1.0" encoding="utf-8"?>
<!-- Generator: Adobe Illustrator 18.1.1, SVG Export Plug-In . SVG Version: 6.00 Build 0)  -->
<svg version="1.1" id="Layer_1" xmlns="http://www.w3.org/2000/svg" xmlns:xlink="http://www.w3.org/1999/xlink" x="0px" y="0px"
	 viewBox="0 0 64 64" enable-background="new 0 0 64 64" xml:space="preserve">
<g>
	<path d="M0,64V0h32v64H0z M4,8v8h8V8H4z M4,24v8h8v-8H4z M4,40v8h8v-8H4z M20,8v8h8V8H20z M20,24v8h8v-8H20z M20,40v8h8v-8H20z
		 M36,24h28v-4H36V24z M36,28h28v36h-8V48H44v16h-8V28z"/>
</g>
</svg>
