<?xml version="1.0" encoding="utf-8"?>
<!-- Generator: Adobe Illustrator 18.1.1, SVG Export Plug-In . SVG Version: 6.00 Build 0)  -->
<svg version="1.1" id="Layer_1" xmlns="http://www.w3.org/2000/svg" xmlns:xlink="http://www.w3.org/1999/xlink" x="0px" y="0px"
	 viewBox="0 0 64 64" enable-background="new 0 0 64 64" xml:space="preserve">
<g>
	<g>
		<path fill="none" d="M9,29v24.8l18.4-15.3l5.3,8.8l7.1-5.7L46,51.8 M12.6,35.2c0.3-0.5,0.6-1,1-1.4c0.4-0.4,0.9-0.7,1.4-1
			c0.5-0.3,1.1-0.4,1.8-0.4c0.6,0,1.2,0.1,1.8,0.4c0.5,0.3,1,0.6,1.4,1c0.4,0.4,0.7,0.9,1,1.4c0.3,0.5,0.4,1.1,0.4,1.8
			c0,0.6-0.1,1.2-0.4,1.8c-0.3,0.5-0.6,1-1,1.4c-0.4,0.4-0.9,0.7-1.4,1c-0.5,0.3-1.1,0.4-1.8,0.4c-0.6,0-1.2-0.1-1.8-0.4
			c-0.5-0.3-1-0.6-1.4-1c-0.4-0.4-0.7-0.9-1-1.4c-0.3-0.5-0.4-1.1-0.4-1.8C12.2,36.4,12.4,35.8,12.6,35.2z"/>
		<polygon points="46,51.8 39.8,41.6 32.8,47.3 27.4,38.5 9,53.8 9,29 45,29 45,26 6,26 6,57 49,57 49,36 46,36 		"/>
		<path d="M13.6,40.2c0.4,0.4,0.9,0.7,1.4,1c0.5,0.3,1.1,0.4,1.8,0.4c0.6,0,1.2-0.1,1.8-0.4c0.5-0.3,1-0.6,1.4-1
			c0.4-0.4,0.7-0.9,1-1.4c0.3-0.5,0.4-1.1,0.4-1.8c0-0.6-0.1-1.2-0.4-1.8c-0.3-0.5-0.6-1-1-1.4c-0.4-0.4-0.9-0.7-1.4-1
			c-0.5-0.3-1.1-0.4-1.8-0.4c-0.6,0-1.2,0.1-1.8,0.4c-0.5,0.3-1,0.6-1.4,1c-0.4,0.4-0.7,0.9-1,1.4c-0.3,0.5-0.4,1.1-0.4,1.8
			c0,0.6,0.1,1.2,0.4,1.8C12.9,39.3,13.2,39.8,13.6,40.2z"/>
	</g>
	<g>
		<g>
			<path d="M64,17.5v3.3c0,0.5-0.2,0.8-0.5,1.2c-0.3,0.3-0.7,0.5-1.2,0.5h-7.1v7.1c0,0.5-0.2,0.8-0.5,1.2s-0.7,0.5-1.2,0.5h-3.3
				c-0.5,0-0.8-0.2-1.2-0.5c-0.3-0.3-0.5-0.7-0.5-1.2v-7.1h-7.1c-0.5,0-0.8-0.2-1.2-0.5c-0.3-0.3-0.5-0.7-0.5-1.2v-3.3
				c0-0.5,0.2-0.8,0.5-1.2c0.3-0.3,0.7-0.5,1.2-0.5h7.1V8.7c0-0.5,0.2-0.8,0.5-1.2c0.3-0.3,0.7-0.5,1.2-0.5h3.3
				c0.5,0,0.8,0.2,1.2,0.5c0.3,0.3,0.5,0.7,0.5,1.2v7.1h7.1c0.5,0,0.8,0.2,1.2,0.5C63.8,16.6,64,17,64,17.5z"/>
		</g>
	</g>
	<g>
		<polygon points="0,19 0,50 3,50 3,22 37,22 37,19 		"/>
	</g>
</g>
</svg>
