<?xml version="1.0" encoding="utf-8"?>
<!-- Generator: Adobe Illustrator 18.1.1, SVG Export Plug-In . SVG Version: 6.00 Build 0)  -->
<svg version="1.1" id="Layer_1" xmlns="http://www.w3.org/2000/svg" xmlns:xlink="http://www.w3.org/1999/xlink" x="0px" y="0px"
	 viewBox="0 0 64 64" enable-background="new 0 0 64 64" xml:space="preserve">
<g>
	<path d="M64,60H0V4h64V60z M8,12v40h48V12H8z M52,48H12v-8l12-20l16.4,20L52,32l-0.1,4L52,48z M40.4,19.7c0.4-0.7,0.8-1.3,1.3-1.9
		c0.5-0.5,1.1-1,1.9-1.3c0.8-0.3,1.5-0.5,2.3-0.5c0.9,0,1.7,0.2,2.4,0.5c0.7,0.3,1.3,0.8,1.9,1.3c0.6,0.5,1,1.2,1.3,1.9
		c0.3,0.7,0.5,1.5,0.6,2.3c-0.1,0.8-0.3,1.6-0.6,2.3c-0.3,0.7-0.7,1.3-1.3,1.9c-0.6,0.5-1.2,1-1.9,1.3c-0.7,0.3-1.5,0.5-2.4,0.5
		c-0.8,0-1.5-0.2-2.3-0.5c-0.8-0.3-1.4-0.8-1.9-1.3c-0.5-0.5-0.9-1.2-1.3-1.9c-0.4-0.7-0.5-1.5-0.4-2.3
		C39.9,21.2,40.1,20.4,40.4,19.7z"/>
</g>
</svg>
