<?xml version="1.0" encoding="utf-8"?>
<!-- Generator: Adobe Illustrator 18.1.1, SVG Export Plug-In . SVG Version: 6.00 Build 0)  -->
<svg version="1.1" id="Layer_1" xmlns="http://www.w3.org/2000/svg" xmlns:xlink="http://www.w3.org/1999/xlink" x="0px" y="0px"
	 viewBox="0 0 64 64" enable-background="new 0 0 64 64" xml:space="preserve">
<g>
	<path d="M9.2,64c-0.5,0-0.9-0.1-1.3-0.3c-0.4-0.2-0.7-0.4-1-0.7c-0.3-0.3-0.5-0.6-0.7-1C6.1,61.6,6,61.2,6,60.7
		c0-1.2,0.1-2.4,0.3-3.7c0.2-1.3,0.6-2.6,1-3.9c0.5-1.3,1-2.6,1.7-3.9c0.7-1.3,1.4-2.5,2.2-3.7c0.7-1.1,1.4-2.1,2.2-2.9
		c0.7-0.9,1.5-1.6,2.4-2.4c0.9-0.7,1.7-1.4,2.6-2c0.9-0.6,1.7-1.1,2.6-1.6c-0.4-0.4-0.7-0.7-1.2-1.2c-0.4-0.4-0.8-0.8-1.1-1.3
		c-0.3-0.5-0.6-0.9-0.9-1.4c-0.3-0.5-0.6-1-0.9-1.4c-0.5-0.8-0.8-1.7-1.2-2.6c-0.3-0.9-0.6-1.8-0.8-2.7c-0.2-0.9-0.4-1.8-0.5-2.8
		c-0.1-0.9-0.2-1.9-0.2-2.9c0-1.4,0.1-2.7,0.3-4c0.2-1.3,0.5-2.6,0.9-3.8c0.4-1.2,0.9-2.4,1.6-3.5c0.6-1.1,1.4-2.1,2.2-3.1
		c0.8-1,1.7-1.9,2.7-2.6c1-0.8,2-1.4,3.1-2c1.1-0.5,2.2-0.9,3.4-1.2C29.6,0.1,30.8,0,32,0c1.2,0,2.3,0.1,3.5,0.4
		c1.2,0.3,2.3,0.7,3.4,1.2C40,2.2,41,2.8,42,3.6c1,0.8,1.9,1.7,2.7,2.6c0.8,1,1.5,2,2.2,3.1c0.6,1.1,1.2,2.2,1.6,3.5
		s0.7,2.5,0.9,3.8c0.2,1.3,0.3,2.6,0.3,4c0,1-0.1,2-0.2,2.9c-0.1,0.9-0.3,1.9-0.5,2.8c-0.2,0.9-0.5,1.8-0.8,2.7
		c-0.3,0.9-0.7,1.8-1.2,2.6c-0.3,0.5-0.6,0.9-0.9,1.4c-0.3,0.5-0.6,1-1,1.4c-0.3,0.5-0.7,0.9-1.1,1.3c-0.4,0.4-0.8,0.8-1.2,1.2
		c0.9,0.5,1.8,1,2.6,1.6c0.9,0.6,1.7,1.2,2.6,2c0.9,0.7,1.6,1.5,2.4,2.4c0.7,0.9,1.4,1.8,2.2,2.9c0.8,1.2,1.6,2.4,2.2,3.7
		c0.7,1.3,1.2,2.6,1.7,3.9c0.5,1.3,0.8,2.6,1,3.9c0.2,1.3,0.3,2.5,0.3,3.7c0,0.5-0.1,0.9-0.3,1.3c-0.2,0.4-0.4,0.7-0.7,1
		c-0.3,0.3-0.6,0.5-1,0.7c-0.4,0.2-0.8,0.3-1.3,0.3H9.2z M51.1,57.5c-0.2-0.6-0.4-1.3-0.6-2c-0.2-0.7-0.5-1.4-0.8-2.1
		c-0.3-0.7-0.7-1.4-1-2c-0.4-0.7-0.8-1.3-1.2-2c-0.7-1.1-1.5-2-2.3-2.8c-0.8-0.8-1.6-1.5-2.4-2.2c-0.8-0.6-1.7-1.2-2.5-1.6
		c-0.9-0.5-1.7-0.8-2.6-0.9c-0.4-0.1-0.7-0.2-1-0.4c-0.3-0.2-0.6-0.4-0.8-0.7c-0.2-0.3-0.4-0.6-0.5-0.9C35.1,39.4,35,39,35,38.6
		v-2.3c0-0.4,0-0.7,0.1-0.9c0.1-0.3,0.2-0.5,0.3-0.7c0.1-0.2,0.3-0.5,0.5-0.7c0.2-0.2,0.4-0.4,0.7-0.5c1-0.6,1.9-1.4,2.7-2.2
		c0.8-0.9,1.5-1.9,2.1-3c0.6-1.1,1-2.3,1.4-3.7c0.3-1.3,0.5-2.6,0.5-4c0-2-0.3-3.8-0.9-5.5c-0.6-1.7-1.4-3.2-2.4-4.5
		c-1-1.3-2.2-2.3-3.6-3.1C35,6.9,33.5,6.5,32,6.5c-1.5,0-3,0.4-4.3,1.1c-1.4,0.7-2.6,1.7-3.6,3.1c-1,1.3-1.9,2.8-2.4,4.5
		c-0.6,1.7-0.9,3.5-0.9,5.5c0,1.4,0.2,2.7,0.5,4c0.3,1.3,0.8,2.5,1.4,3.7c0.6,1.1,1.3,2.1,2.1,3c0.8,0.9,1.7,1.6,2.7,2.2
		c0.3,0.1,0.5,0.2,0.7,0.5c0.2,0.2,0.4,0.5,0.5,0.7c0.2,0.2,0.3,0.5,0.3,0.7c0,0.3,0.1,0.6,0.1,0.9v2.3c0,0.4-0.1,0.7-0.2,1.1
		c-0.1,0.4-0.3,0.7-0.5,0.9c-0.2,0.3-0.5,0.5-0.8,0.7c-0.3,0.2-0.7,0.3-1,0.4c-0.9,0.2-1.8,0.5-2.6,0.9c-0.9,0.5-1.7,1-2.5,1.6
		c-0.8,0.6-1.6,1.4-2.4,2.2c-0.8,0.8-1.6,1.8-2.3,2.8c-0.5,0.6-0.9,1.3-1.2,2c-0.4,0.7-0.7,1.4-1,2c-0.3,0.7-0.6,1.4-0.8,2.1
		c-0.2,0.7-0.4,1.4-0.6,2H51.1z"/>
</g>
</svg>
