<?xml version="1.0" encoding="utf-8"?>
<!-- Generator: Adobe Illustrator 18.1.1, SVG Export Plug-In . SVG Version: 6.00 Build 0)  -->
<svg version="1.1" id="Layer_1" xmlns="http://www.w3.org/2000/svg" xmlns:xlink="http://www.w3.org/1999/xlink" x="0px" y="0px"
	 viewBox="0 0 64 64" enable-background="new 0 0 64 64" xml:space="preserve">
<g>
	<path d="M64,27.5v9.3c0,0.3-0.1,0.7-0.3,1c-0.2,0.3-0.5,0.5-0.8,0.5l-7.7,1.2c-0.5,1.5-1.1,2.8-1.6,3.8c1,1.4,2.5,3.3,4.5,5.8
		c0.3,0.3,0.4,0.7,0.4,1s-0.1,0.7-0.4,1c-0.7,1-2.1,2.5-4.1,4.5c-2,2-3.3,3-3.9,3c-0.3,0-0.7-0.1-1.1-0.4l-5.8-4.5
		c-1.2,0.6-2.5,1.2-3.8,1.6c-0.4,3.8-0.8,6.4-1.2,7.7c-0.2,0.8-0.7,1.2-1.5,1.2h-9.3c-0.4,0-0.7-0.1-1-0.4c-0.3-0.2-0.4-0.5-0.5-0.9
		l-1.2-7.7c-1.4-0.4-2.6-1-3.8-1.5L15.1,58c-0.3,0.2-0.6,0.4-1,0.4c-0.4,0-0.7-0.1-1-0.5c-3.5-3.2-5.8-5.5-6.9-7
		c-0.2-0.3-0.3-0.6-0.3-1c0-0.3,0.1-0.7,0.3-1c0.4-0.6,1.1-1.5,2.1-2.8c1-1.3,1.7-2.2,2.2-2.9c-0.7-1.4-1.3-2.8-1.7-4.1L1.2,38
		c-0.4-0.1-0.7-0.2-0.9-0.5c-0.2-0.3-0.3-0.6-0.3-1v-9.3c0-0.3,0.1-0.7,0.3-1c0.2-0.3,0.5-0.5,0.8-0.5l7.8-1.2
		c0.4-1.3,0.9-2.6,1.6-3.8C9.4,19.2,7.9,17.3,6,15c-0.3-0.3-0.4-0.7-0.4-1c0-0.3,0.1-0.6,0.4-1c0.7-1,2.1-2.5,4.1-4.5s3.3-3,3.9-3
		c0.4,0,0.7,0.1,1.1,0.4l5.8,4.5c1.2-0.6,2.5-1.2,3.8-1.6c0.4-3.8,0.8-6.4,1.2-7.8C26.1,0.4,26.6,0,27.4,0h9.3c0.4,0,0.7,0.1,1,0.4
		c0.3,0.2,0.4,0.5,0.5,0.9l1.2,7.7c1.4,0.4,2.6,1,3.7,1.5L49,6c0.3-0.2,0.6-0.4,1-0.4c0.4,0,0.7,0.1,1,0.4c3.6,3.3,5.9,5.7,6.9,7.1
		c0.2,0.2,0.3,0.5,0.3,0.9c0,0.3-0.1,0.7-0.3,1c-0.4,0.6-1.1,1.5-2.1,2.8c-1,1.3-1.7,2.2-2.2,2.9c0.7,1.4,1.3,2.7,1.7,4.1l7.6,1.2
		c0.4,0.1,0.7,0.2,0.9,0.5C63.9,26.8,64,27.1,64,27.5z M39.5,39.5c2.1-2.1,3.1-4.6,3.1-7.5c0-2.9-1-5.5-3.1-7.5
		c-2.1-2.1-4.6-3.1-7.5-3.1c-2.9,0-5.5,1-7.5,3.1c-2.1,2.1-3.1,4.6-3.1,7.5c0,2.9,1,5.5,3.1,7.5c2.1,2.1,4.6,3.1,7.5,3.1
		C34.9,42.7,37.5,41.6,39.5,39.5z"/>
</g>
</svg>
