<?xml version="1.0" encoding="utf-8"?>
<!-- Generator: Adobe Illustrator 18.1.1, SVG Export Plug-In . SVG Version: 6.00 Build 0)  -->
<svg version="1.1" id="Layer_1" xmlns="http://www.w3.org/2000/svg" xmlns:xlink="http://www.w3.org/1999/xlink" x="0px" y="0px"
	 viewBox="0 0 64 64" enable-background="new 0 0 64 64" xml:space="preserve">
<g>
	<path d="M14.5,8l1.7,0.8C16.5,9,18.7,9,22.8,9c0.9,0,2.3,0,4.1-0.1c1.8,0,3.2-0.1,4.1-0.1c0.8,0,1.9,0,3.4,0c1.5,0,2.6,0,3.4,0h9.2
		c0.1,0,0.3,0,0.7,0c0.3,0,0.5,0,0.6,0c0.1,0,0.3,0,0.5-0.1c0.2-0.1,0.4-0.1,0.5-0.3c0.1-0.1,0.3-0.3,0.5-0.5l1.3,0
		c0.1,0,0.2,0,0.4,0c0.2,0,0.4,0,0.4,0c0,2.3,0.1,5.8,0.1,10.5c0,1.7-0.1,2.8-0.2,3.4c-0.8,0.3-1.5,0.5-2.1,0.6
		c-0.5-0.9-1.1-2.3-1.7-4c-0.1-0.2-0.2-0.7-0.3-1.5c-0.2-0.8-0.3-1.6-0.5-2.3C47.1,14,47,13.6,47,13.6c-0.1-0.2-0.3-0.3-0.4-0.4
		c-0.1-0.1-0.3-0.2-0.5-0.2c-0.2,0-0.3-0.1-0.4-0.1c-0.1,0-0.3,0-0.6,0c-0.3,0-0.5,0-0.5,0c-0.4,0-1,0-2.1,0c-1,0-1.8,0-2.3,0
		c-0.5,0-1.2,0-2,0.1c-0.8,0-1.6,0.1-2.2,0.2c-0.2,1.7-0.3,3.1-0.2,4.2c0,2,0,6,0.1,12.1c0,6.1,0.1,10.9,0.1,14.2
		c0,0.3,0,1.1-0.1,2.2c-0.1,1.2-0.1,2.1,0,2.9c0.1,0.7,0.2,1.5,0.4,2.2c0.8,0.4,2.1,0.9,3.9,1.3c1.7,0.4,3,0.8,3.7,1.2
		c0.1,0.8,0.2,1.4,0.2,1.6c0,0.3,0,0.6-0.1,0.9l-1.1,0c-1.6,0-3.9,0-6.8-0.2c-3-0.2-5.1-0.3-6.5-0.3c-1,0-2.6,0.1-4.7,0.3
		c-2.1,0.2-3.7,0.3-4.8,0.3C20,54.9,20,54.4,20,54.4v-0.3c0.4-0.6,1-1,1.9-1.3c0.9-0.3,2-0.6,3.1-0.9s1.9-0.6,2.4-0.8
		c0.4-0.9,0.6-4.9,0.6-12c0-2.1,0-5.3-0.1-9.5c-0.1-4.2-0.1-7.4-0.1-9.5v-3.7c0,0,0-0.2,0-0.5c0-0.3,0-0.5,0-0.8c0-0.2,0-0.5,0-0.8
		s-0.1-0.5-0.1-0.7c0-0.2-0.1-0.4-0.2-0.4c-0.2-0.3-1.9-0.4-5.1-0.4c-0.7,0-1.7,0.1-2.9,0.4c-1.2,0.3-2.1,0.5-2.5,0.8
		c-0.4,0.3-0.8,1-1.1,2.3c-0.3,1.2-0.6,2.4-1,3.5c-0.3,1.1-0.8,1.6-1.3,1.7c-0.9-0.5-1.5-1-1.7-1.4v-12L14.5,8z"/>
</g>
</svg>
