<?xml version="1.0" encoding="utf-8"?>
<!-- Generator: Adobe Illustrator 18.1.1, SVG Export Plug-In . SVG Version: 6.00 Build 0)  -->
<svg version="1.1" id="Layer_1" xmlns="http://www.w3.org/2000/svg" xmlns:xlink="http://www.w3.org/1999/xlink" x="0px" y="0px"
	 viewBox="0 0 64 64" enable-background="new 0 0 64 64" xml:space="preserve">
<g>
	<g>
		<path d="M55,35h-5.9c-1.8,0-3.1-1.6-3.1-3.3V25h-5.1c-2.2,0-4.9-1.6-4.9-3.8v-4.1c0-0.7,0.6-1.3,0.9-1.9c-0.9,0-1.5-0.1-2.3-0.1
			C32.4,15.1,30.2,15,28,15c-2.3,0-4.5,0-6.7,0.1c-2.2,0.1-4.4,0.2-6.6,0.3c-2.2,0.1-4.3,0.3-6.3,0.5c-2.1,0.2-4.1,0.5-6.1,0.8
			c-0.4,1.5-0.7,3-1,4.6c-0.3,1.6-0.5,3.2-0.7,4.8s-0.3,3.3-0.4,4.9c-0.1,1.7-0.2,3.4-0.2,5s0.1,3.4,0.2,5c0.1,1.7,0.3,3.3,0.4,4.9
			c0.2,1.6,0.4,3.2,0.7,4.8c0.3,1.6,0.6,3.1,1,4.6c2,0.3,4,0.5,6.1,0.8c2.1,0.2,4.2,0.4,6.4,0.5c2.2,0.1,4.3,0.3,6.6,0.3
			c2.2,0.1,4.5,0.1,6.7,0.1c2.3,0,4.5,0,6.7-0.1c2.2-0.1,4.4-0.2,6.6-0.3c2.2-0.1,4.3-0.3,6.4-0.5c2.1-0.2,4.1-0.5,6.1-0.8
			c0.4-1.5,0.7-3,1-4.6c0.3-1.6,0.5-3.2,0.7-4.8c0.2-1.6,0.3-3.3,0.4-4.9c0.1-1.7,0.2-3.4,0.2-5c0-0.5,0-0.9,0-1.4
			C55.8,34.9,55.4,35,55,35z M22,46.6V25.6l17.6,10.5L22,46.6z"/>
	</g>
	<g>
		<g>
			<path d="M64,17.2v3.3c0,0.5-0.2,0.8-0.5,1.2c-0.3,0.3-0.7,0.5-1.2,0.5h-7.1v7.1c0,0.5-0.2,0.8-0.5,1.2s-0.7,0.5-1.2,0.5h-3.3
				c-0.5,0-0.8-0.2-1.2-0.5c-0.3-0.3-0.5-0.7-0.5-1.2v-7.1h-7.1c-0.5,0-0.8-0.2-1.2-0.5c-0.3-0.3-0.5-0.7-0.5-1.2v-3.3
				c0-0.5,0.2-0.8,0.5-1.2c0.3-0.3,0.7-0.5,1.2-0.5h7.1V8.5c0-0.5,0.2-0.8,0.5-1.2c0.3-0.3,0.7-0.5,1.2-0.5h3.3
				c0.5,0,0.8,0.2,1.2,0.5c0.3,0.3,0.5,0.7,0.5,1.2v7.1h7.1c0.5,0,0.8,0.2,1.2,0.5C63.8,16.4,64,16.8,64,17.2z"/>
		</g>
	</g>
</g>
</svg>
