<?xml version="1.0" encoding="utf-8"?>
<!-- Generator: Adobe Illustrator 18.1.1, SVG Export Plug-In . SVG Version: 6.00 Build 0)  -->
<svg version="1.1" id="Layer_1" xmlns="http://www.w3.org/2000/svg" xmlns:xlink="http://www.w3.org/1999/xlink" x="0px" y="0px"
	 viewBox="0 0 64 64" enable-background="new 0 0 64 64" xml:space="preserve">
<g>
	<path d="M49.6,16.2c-0.4-1.9,0.7-4.4-0.3-6.2c-0.9-1.7-3.5-2.2-5-3.6c-1.5-1.4-2.1-4-3.8-4.8c-1.8-0.9-4.2,0.3-6.2,0.1
		c-2-0.3-4-2-5.9-1.7c-1.9,0.4-3.2,2.7-5,3.7c-1.7,0.9-4.4,0.7-5.8,2.2c-1.4,1.5-1,4.1-1.9,5.9c-0.9,1.8-3.1,3.2-3.4,5.1
		c-0.3,2,1.6,3.9,1.9,5.8c0.4,1.9-0.7,4.4,0.3,6.1c0.9,1.7,3.5,2.2,5,3.6c1.5,1.4,2.1,4,3.8,4.8c1.8,0.9,4.2-0.3,6.2-0.1
		c2,0.3,4,2,5.9,1.7c1.9-0.4,3.2-2.7,5-3.7c1.7-0.9,4.4-0.7,5.8-2.2c1.4-1.5,1-4.1,1.9-5.9c0.9-1.8,3.1-3.2,3.4-5.1
		C51.8,20.1,50,18.1,49.6,16.2z M32,32.3c-7.1,0-12.9-5.8-12.9-12.9c0-7.1,5.8-12.9,12.9-12.9c7.1,0,12.9,5.8,12.9,12.9
		C44.9,26.5,39.1,32.3,32,32.3z"/>
	<path d="M35,40.7c-1.4,0-2.6-0.5-3.7-1c-0.7-0.3-1.4-0.6-2-0.7c-0.1,0-0.2,0-0.4,0c-0.5,0-1.1,0.1-1.7,0.2
		c-0.7,0.1-1.5,0.2-2.3,0.2c-0.9,0-1.7-0.2-2.4-0.5c-1.2-0.6-2-1.6-2.6-2.6l-3.5,24.3c-0.1,0.7,0.4,1.1,1.1,0.8l7.6-3.4
		c0.7-0.3,1.7-0.2,2.3,0.3l6.3,5.4c0.6,0.5,1.1,0.3,1.2-0.5l3.4-24c-0.8,0.6-1.6,1.2-2.7,1.4C35.6,40.7,35.3,40.7,35,40.7z"/>
	<path d="M45.1,35.8c-0.6,0.2-3.2,0.8-3.7,1c-0.2,0.1-0.4,0.3-0.7,0.5l-2.1,14.4c0.6,0.2,9.2,2.7,9.2,2.7c0.7,0.2,1.2-0.2,1-0.9
		L45.1,35.8z"/>
</g>
</svg>
