<?xml version="1.0" encoding="utf-8"?>
<!-- Generator: Adobe Illustrator 18.1.1, SVG Export Plug-In . SVG Version: 6.00 Build 0)  -->
<svg version="1.1" id="Layer_1" xmlns="http://www.w3.org/2000/svg" xmlns:xlink="http://www.w3.org/1999/xlink" x="0px" y="0px"
	 viewBox="0 0 64 64" enable-background="new 0 0 64 64" xml:space="preserve">
<g>
	<g>
		<g>
			<path d="M46.2,37.7c0,0.3-0.2,0.6-0.5,0.9l-6.8,6.6l1.6,9.3c0,0.1,0,0.2,0,0.4c0,0.6-0.3,0.9-0.8,0.9c-0.2,0-0.5-0.1-0.7-0.2
				l-8.4-4.4l-8.4,4.4c-0.3,0.1-0.5,0.2-0.7,0.2c-0.3,0-0.5-0.1-0.6-0.3c-0.1-0.2-0.2-0.4-0.2-0.7c0-0.1,0-0.2,0-0.4l1.6-9.3
				l-6.8-6.6c-0.3-0.3-0.5-0.6-0.5-0.9c0-0.5,0.3-0.7,1-0.9l9.4-1.4l4.2-8.5c0.2-0.5,0.5-0.8,0.9-0.8c0.4,0,0.7,0.3,0.9,0.8l4.2,8.5
				l9.4,1.4C45.8,37,46.2,37.3,46.2,37.7z M36.4,44.4l5.7-5.5l-7.9-1.2l-3.5-7.1l-3.5,7.1l-7.9,1.2l5.7,5.5l-1.4,7.9l7.1-3.7l7,3.7
				L36.4,44.4z"/>
		</g>
		<path d="M33,16H15c-1.1,0-2-0.8-2-1.9v-0.4c0-1.1,0.9-2.7,2-2.7h18V9H15c-3,0-6,1.7-6,4.7v0.4c0,3,3,5.9,6,5.9h18V16z"/>
		<path d="M48,30v32H15.1c-1.5,0-2.1-0.9-2.1-2.3V15.2c0-1.4-0.3-3.2,2.8-3.2H33v-2H15.8C12.3,10,9,11.9,9,15.2v44.5
			C9,63,11.8,64,15.1,64H52V30H48z"/>
	</g>
	<g>
		<path d="M63.2,11.5v3.6c0,0.5-0.2,0.9-0.5,1.3c-0.3,0.3-0.8,0.5-1.3,0.5h-7.7v7.7c0,0.5-0.2,0.9-0.5,1.3c-0.3,0.3-0.8,0.5-1.3,0.5
			h-3.6c-0.5,0-0.9-0.2-1.3-0.5c-0.3-0.3-0.5-0.8-0.5-1.3v-7.7h-7.7c-0.5,0-0.9-0.2-1.3-0.5C37.1,16,37,15.6,37,15.1v-3.6
			c0-0.5,0.2-0.9,0.5-1.3c0.3-0.3,0.8-0.5,1.3-0.5h7.7V2c0-0.5,0.2-0.9,0.5-1.3c0.3-0.3,0.8-0.5,1.3-0.5h3.6c0.5,0,0.9,0.2,1.3,0.5
			c0.3,0.3,0.5,0.8,0.5,1.3v7.7h7.7c0.5,0,0.9,0.2,1.3,0.5C63,10.6,63.2,11,63.2,11.5z"/>
	</g>
</g>
</svg>
