<?xml version="1.0" encoding="utf-8"?>
<!-- Generator: Adobe Illustrator 18.1.1, SVG Export Plug-In . SVG Version: 6.00 Build 0)  -->
<svg version="1.1" id="Layer_1" xmlns="http://www.w3.org/2000/svg" xmlns:xlink="http://www.w3.org/1999/xlink" x="0px" y="0px"
	 viewBox="0 0 64 64" enable-background="new 0 0 64 64" xml:space="preserve">
<g>
	<path d="M56.2,64h-42c-3.9,0-6.4-2.5-6.4-6.3V6.8C7.8,3,11,0,15,0h35.3v8.9h5.9V64z M15,4c-1.9,0-3.3,1.2-3.3,2.8v50.9
		c0,1.6,0.8,2.4,2.5,2.4h38V12.8h-5.9V4H15z"/>
	<g>
		<path d="M49.8,32.5c0,0.3-0.2,0.7-0.6,1l-7.7,7.6l1.8,10.7c0,0.1,0,0.2,0,0.4c0,0.7-0.3,1.1-0.9,1.1c-0.3,0-0.6-0.1-0.9-0.3L32,48
			l-9.6,5c-0.3,0.2-0.6,0.3-0.9,0.3c-0.3,0-0.5-0.1-0.7-0.3c-0.2-0.2-0.2-0.5-0.2-0.8c0-0.1,0-0.2,0-0.4l1.8-10.7l-7.8-7.6
			c-0.4-0.4-0.5-0.7-0.5-1c0-0.5,0.4-0.9,1.2-1L26.2,30l4.8-9.7c0.3-0.6,0.6-0.9,1-0.9c0.4,0,0.8,0.3,1,0.9l4.8,9.7l10.7,1.6
			C49.4,31.7,49.8,32,49.8,32.5z M38.5,40.2l6.5-6.3l-9-1.3l-4-8.2l-4,8.2l-9,1.3l6.5,6.3l-1.6,9l8.1-4.2l8,4.2L38.5,40.2z"/>
	</g>
	<path d="M50.3,12.9H14c-3.4,0-6.2-2.8-6.2-6.2V6.2C7.8,2.8,10.6,0,14,0h36.3V12.9z M14,4c-1.2,0-2.3,1-2.3,2.3v0.4
		c0,1.3,1,2.3,2.3,2.3h32.3V4H14z"/>
</g>
</svg>
