<?xml version="1.0" encoding="utf-8"?>
<!-- Generator: Adobe Illustrator 18.1.1, SVG Export Plug-In . SVG Version: 6.00 Build 0)  -->
<svg version="1.1" id="Layer_1" xmlns="http://www.w3.org/2000/svg" xmlns:xlink="http://www.w3.org/1999/xlink" x="0px" y="0px"
	 viewBox="0 0 64 64" enable-background="new 0 0 64 64" xml:space="preserve">
<g>
	<path d="M49.1,29.9c2.1,0,3.8,0.3,4.9,1c1.2,0.7,2,1.6,2.5,2.7c0.5,1.2,0.8,2.5,0.9,4.1c0.1,1.6,0.1,3.2,0.1,5V64H6.4V42.7
		c0-1.8,0-3.4,0.1-5c0.1-1.6,0.4-2.9,0.9-4.1c0.5-1.2,1.4-2.1,2.5-2.7c1.2-0.7,2.8-1,4.9-1h2.4l13.2,26.9L25.6,32l6.4-6.4l6.4,6.4
		l-4.9,24.8l13.2-26.9H49.1z M19.2,12.8c0,1.8,0.3,3.4,1,5c0.7,1.6,1.6,2.9,2.7,4.1c1.2,1.2,2.5,2.1,4.1,2.7c1.6,0.7,3.2,1,5,1
		c1.8,0,3.4-0.3,5-1c1.6-0.7,2.9-1.6,4.1-2.7c1.2-1.2,2.1-2.5,2.7-4.1c0.7-1.6,1-3.2,1-5c0-1.8-0.3-3.4-1-5
		c-0.7-1.6-1.6-2.9-2.7-4.1C39.9,2.6,38.6,1.7,37,1c-1.6-0.7-3.2-1-5-1c-1.8,0-3.4,0.3-5,1c-1.6,0.7-2.9,1.6-4.1,2.7
		c-1.2,1.2-2.1,2.5-2.7,4.1C19.5,9.4,19.2,11,19.2,12.8z"/>
</g>
</svg>
