<?xml version="1.0" encoding="utf-8"?>
<!-- Generator: Adobe Illustrator 18.1.1, SVG Export Plug-In . SVG Version: 6.00 Build 0)  -->
<svg version="1.1" id="Layer_1" xmlns="http://www.w3.org/2000/svg" xmlns:xlink="http://www.w3.org/1999/xlink" x="0px" y="0px"
	 viewBox="0 0 64 64" enable-background="new 0 0 64 64" xml:space="preserve">
<g>
	<path d="M56,12H4v36H0V8h56V12z M8,16h56v40H8V16z M60,49.4V20H12v32l24-20l6.9,11.5L52,36L60,49.4z M16,30c0,0.8,0.2,1.6,0.5,2.3
		c0.3,0.7,0.8,1.3,1.3,1.9c0.5,0.5,1.2,1,1.9,1.3c0.7,0.3,1.5,0.5,2.3,0.5s1.6-0.2,2.3-0.5c0.7-0.3,1.3-0.8,1.9-1.3
		c0.5-0.5,1-1.2,1.3-1.9c0.3-0.7,0.5-1.5,0.5-2.3c0-0.8-0.2-1.6-0.5-2.3c-0.3-0.7-0.8-1.3-1.3-1.9c-0.5-0.5-1.2-1-1.9-1.3
		C23.6,24.2,22.8,24,22,24s-1.6,0.2-2.3,0.5c-0.7,0.3-1.3,0.8-1.9,1.3c-0.5,0.5-1,1.2-1.3,1.9C16.2,28.4,16,29.2,16,30z"/>
</g>
</svg>
