<?xml version="1.0" encoding="utf-8"?>
<!-- Generator: Adobe Illustrator 18.1.1, SVG Export Plug-In . SVG Version: 6.00 Build 0)  -->
<svg version="1.1" id="Layer_1" xmlns="http://www.w3.org/2000/svg" xmlns:xlink="http://www.w3.org/1999/xlink" x="0px" y="0px"
	 viewBox="0 0 64 64" enable-background="new 0 0 64 64" xml:space="preserve">
<g>
	<g>
		<path d="M39.2,26.8c-0.2-0.5-0.6-1-1-1.4c-0.4-0.4-0.9-0.8-1.4-1c-0.5-0.3-1.1-0.4-1.8-0.4c-0.6,0-1.2,0.1-1.7,0.4
			c-0.6,0.3-1.1,0.6-1.4,1c-0.4,0.4-0.7,0.9-1,1.4c-0.3,0.5-0.4,1.1-0.3,1.8c-0.1,0.6,0,1.2,0.3,1.8c0.3,0.5,0.6,1,1,1.4
			c0.4,0.4,0.9,0.8,1.4,1c0.6,0.3,1.2,0.4,1.7,0.4c0.7,0,1.3-0.1,1.8-0.4c0.5-0.3,1-0.6,1.4-1c0.4-0.4,0.8-0.9,1-1.4
			c0.2-0.5,0.4-1.1,0.4-1.8C39.5,28,39.4,27.4,39.2,26.8z"/>
		<polygon points="30.7,42.5 17.7,27.1 8,42.5 8,48 39.6,48 39.5,39.1 39.6,36.2 		"/>
		<path d="M46,30.8V24h-4v28H6V20h30.4c-0.3-0.2-0.4-0.1-0.4-0.9v-3.5c0-0.5-0.2-1.2,1.1-1.6H0v44h48V34C48,33.9,46,32.5,46,30.8z"
			/>
	</g>
	<g>
		<g>
			<path d="M64,16.4v3.3c0,0.5-0.2,0.8-0.5,1.2c-0.3,0.3-0.7,0.5-1.2,0.5h-7.1v7.1c0,0.5-0.2,0.8-0.5,1.2s-0.7,0.5-1.2,0.5h-3.3
				c-0.5,0-0.8-0.2-1.2-0.5c-0.3-0.3-0.5-0.7-0.5-1.2v-7.1h-7.1c-0.5,0-0.8-0.2-1.2-0.5c-0.3-0.3-0.5-0.7-0.5-1.2v-3.3
				c0-0.5,0.2-0.8,0.5-1.2c0.3-0.3,0.7-0.5,1.2-0.5h7.1V7.6c0-0.5,0.2-0.8,0.5-1.2C49.4,6.1,49.8,6,50.3,6h3.3
				c0.5,0,0.8,0.2,1.2,0.5s0.5,0.7,0.5,1.2v7.1h7.1c0.5,0,0.8,0.2,1.2,0.5C63.8,15.5,64,15.9,64,16.4z"/>
		</g>
	</g>
</g>
</svg>
