<?xml version="1.0" encoding="utf-8"?>
<!-- Generator: Adobe Illustrator 18.1.1, SVG Export Plug-In . SVG Version: 6.00 Build 0)  -->
<svg version="1.1" id="Layer_1" xmlns="http://www.w3.org/2000/svg" xmlns:xlink="http://www.w3.org/1999/xlink" x="0px" y="0px"
	 viewBox="0 0 64 64" enable-background="new 0 0 64 64" xml:space="preserve">
<g>
	<g>
		<path d="M61.4,10c0.4,1.7,0.8,3.4,1.1,5.2c0.3,1.8,0.6,3.6,0.8,5.4c0.2,1.8,0.4,3.7,0.5,5.6S64,30.1,64,32s-0.1,3.8-0.2,5.7
			c-0.1,1.9-0.3,3.8-0.5,5.6c-0.2,1.8-0.5,3.6-0.8,5.4c-0.3,1.8-0.7,3.5-1.1,5.2c-2.2,0.3-4.6,0.6-6.9,0.9c-2.4,0.3-4.8,0.5-7.2,0.6
			c-2.5,0.2-5,0.3-7.5,0.4C37.1,56,34.6,56,32,56c-2.6,0-5.1,0-7.7-0.1c-2.5-0.1-5-0.2-7.5-0.4c-2.5-0.2-4.9-0.4-7.3-0.6
			S4.9,54.3,2.6,54c-0.4-1.7-0.8-3.4-1.1-5.2c-0.3-1.8-0.6-3.6-0.8-5.4s-0.4-3.7-0.5-5.6C0.1,35.8,0,33.9,0,32s0.1-3.8,0.2-5.7
			c0.1-1.9,0.3-3.8,0.5-5.6s0.5-3.6,0.8-5.4c0.3-1.8,0.7-3.5,1.1-5.2c2.2-0.3,4.6-0.6,6.9-0.9c2.4-0.3,4.8-0.5,7.3-0.6
			c2.5-0.2,5-0.3,7.5-0.4C26.9,8,29.4,8,32,8c2.6,0,5.1,0,7.7,0.1c2.5,0.1,5,0.2,7.5,0.4c2.5,0.2,4.9,0.4,7.2,0.6
			C56.8,9.4,59.1,9.7,61.4,10z M24,44l20-12L24,20V44z"/>
	</g>
</g>
</svg>
